<?xml version="1.0" encoding="UTF-8"?>
<!DOCTYPE svg PUBLIC "-//W3C//DTD SVG 1.1//EN" "http://www.w3.org/Graphics/SVG/1.1/DTD/svg11.dtd">
<!-- Creator: CorelDRAW 2020 (64-Bit) -->
<svg xmlns="http://www.w3.org/2000/svg" xml:space="preserve" width="247.222mm" height="59.7495mm" version="1.1" style="shape-rendering:geometricPrecision; text-rendering:geometricPrecision; image-rendering:optimizeQuality; fill-rule:evenodd; clip-rule:evenodd"
viewBox="0 0 6531.73 1578.61"
 xmlns:xlink="http://www.w3.org/1999/xlink"
 xmlns:xodm="http://www.corel.com/coreldraw/odm/2003">
 <defs>
  <style type="text/css">
   <![CDATA[
    .str0 {stroke:#FEFEFE;stroke-width:13.21;stroke-miterlimit:22.9256}
    .fil1 {fill:none}
    .fil0 {fill:white}
    .fil2 {fill:white;fill-rule:nonzero}
   ]]>
  </style>
 </defs>
 <g id="Слой_x0020_1">
  <metadata id="CorelCorpID_0Corel-Layer"/>
  <path class="fil0" d="M557.53 6.61l-397.48 1018.71c0,0 -24.25,18.26 -50.4,20.76 -26.15,2.49 -53.81,6.33 -69.22,12.44 -15.41,6.11 -28.38,10.15 -28.99,19.33 -0.62,9.19 -0.75,12.88 -0.75,12.88l382.77 0c0,0 4.74,-15.87 4.58,-19.34 -0.16,-3.47 -38.37,-16.9 -54.01,-21.46 -15.64,-4.57 -41.34,-6.45 -52.31,-7.53 -10.97,-1.07 -27.72,-2.73 -40.02,-22.1 -12.31,-19.36 -14.81,-19.36 -12.87,-38.74 1.94,-19.38 98,-266.18 98,-266.18l356.01 0 88.6 212.64c0,0 29.87,53.82 24.05,77.75 -5.83,23.93 -37.35,46.06 -72.38,44.68 -35.03,-1.38 -59.91,-4.24 -71,2.93 -11.09,7.18 -14.19,17.45 -14.72,25.74 -0.52,8.29 0,11.6 0,11.6l459.26 0c0,0 -0.01,-17.22 -3.54,-25.78 -3.52,-8.55 -71.59,-26.47 -93.62,-40.21 -22.03,-13.74 -48.22,-19.86 -84.77,-116.06 -36.54,-96.2 -356.71,-902.07 -356.71,-902.07l-10.48 0zm-198.15 655.63l306.07 0 -151.43 -372.11 -154.64 372.11z"/>
  <polygon class="fil0" points="1.77,6.61 11.44,6.61 11.44,1090.73 1.77,1090.73 "/>
  <polygon class="fil0" points="1.77,16.28 1.77,6.61 1113.28,6.61 1113.28,16.28 "/>
  <polygon class="fil0" points="1111.48,1090.73 1101.82,1090.73 1101.82,6.61 1111.48,6.61 "/>
  <polygon class="fil0" points="1111.48,1081.06 1111.48,1090.73 1.77,1090.73 1.77,1081.06 "/>
  <polygon class="fil0" points="549,6.61 558.67,6.61 558.67,1090.73 549,1090.73 "/>
  <polygon class="fil0" points="7.34,715.39 7.34,705.72 1107.05,705.72 1107.05,715.39 "/>
  <polygon class="fil0" points="11.78,673.07 11.78,663.4 1095.9,663.4 1095.9,673.07 "/>
  <path class="fil1 str0" d="M556.63 6.61c303.76,0 550.02,242.69 550.02,542.06 0,299.37 -246.25,542.06 -550.02,542.06 -303.78,0 -550.03,-242.69 -550.03,-542.06 0,-299.37 246.25,-542.06 550.03,-542.06z"/>
  <polygon class="fil0" points="1208.36,1090.73 1198.69,1090.73 1198.69,6.61 1208.36,6.61 "/>
  <polygon class="fil0" points="2304.18,1090.73 2291.29,1090.73 2291.29,6.61 2304.18,6.61 "/>
  <path class="fil0" d="M1241.79 6.85c0,0 -13.19,4.27 -20.35,14.01 -7.17,9.74 -9.19,10.81 -9.44,16.61 -0.25,5.8 0.83,21.87 26.19,23.82 25.36,1.96 77.32,2.91 101.12,19.23 23.79,16.33 19.28,85.53 19.28,85.53l0 746.13c0,0 1.98,75.18 -9.09,92.89 -11.08,17.72 -61.96,11.41 -72.82,12.15 -10.86,0.74 -70.87,2.63 -68.32,32.7 2.54,30.07 22.1,37.37 50.62,37.37 28.52,0 358.36,0.82 366.25,-1.39 7.89,-2.21 29.46,-14.17 27.95,-27.71 -1.51,-13.54 -12.35,-30.99 -43.12,-33.73 -30.77,-2.75 -82.68,-3.19 -95.96,-23.68 -13.28,-20.49 -5.69,-99.66 -5.69,-121.52 0,-21.87 0,-324.71 0,-324.71 0,0 106.33,84.04 274.41,53.23 168.09,-30.81 222.44,-115.67 243.72,-169.03 21.28,-53.35 34.68,-155.75 20.05,-202.81 -14.64,-47.05 -58.29,-159.46 -174.14,-194.28 -115.85,-34.82 -219.37,-34.82 -285.26,-34.82 -65.88,0 -345.38,0 -345.38,0zm266.6 182.04l0 280.29c0,0 8.45,77.49 135.24,77.15 126.79,-0.35 255.16,-83.45 253,-209.52 -3.2,-187.41 -52.53,-307.6 -284.51,-298.88 -120.13,4.51 -103.57,77.04 -103.73,150.96z"/>
  <polygon class="fil0" points="2057.62,1090.73 2048.89,1090.73 2048.89,6.61 2057.62,6.61 "/>
  <polygon class="fil0" points="1198.69,16.28 1198.69,6.61 2302.59,6.61 2302.59,16.28 "/>
  <polygon class="fil0" points="1198.69,188.89 1198.69,179.22 2302.59,179.22 2302.59,188.89 "/>
  <polygon class="fil0" points="1198.69,912.17 1198.69,902.5 2302.59,902.5 2302.59,912.17 "/>
  <polygon class="fil0" points="1198.69,1090.73 1198.69,1081.06 2302.59,1081.06 2302.59,1090.73 "/>
  <polygon class="fil0" points="2389.59,6.61 2399.26,6.61 2399.26,1090.73 2389.59,1090.73 "/>
  <polygon class="fil0" points="2389.59,16.28 2389.59,6.61 3513.86,6.61 3513.86,16.28 "/>
  <polygon class="fil0" points="3513.86,1090.73 3504.19,1090.73 3504.19,6.61 3513.86,6.61 "/>
  <polygon class="fil0" points="3513.86,1081.06 3513.86,1090.73 2389.59,1090.73 2389.59,1081.06 "/>
  <polygon class="fil0" points="2930.65,6.61 2940.32,6.61 2940.32,1090.73 2930.65,1090.73 "/>
  <polygon class="fil0" points="2389.59,214.71 2389.59,205.04 3513.86,205.04 3513.86,214.71 "/>
  <polygon class="fil0" points="2389.59,910.05 2389.59,900.39 3513.86,900.39 3513.86,910.05 "/>
  <path class="fil0" d="M2611.7 300.62l285.14 790.1 329.54 -867.85 2.48 737.16c0,0 7.43,47.74 -22.55,56.59 -29.98,8.85 -73.92,16.9 -84.57,24.17 -10.64,7.27 -8.86,21.33 -6.07,29.72 2.8,8.38 6.05,15.41 6.05,15.41l346.23 2.66c0,0 10.66,-8.82 11.5,-22.87 0.84,-14.05 -37.26,-18.37 -66.31,-36.37 -29.06,-18 -32.85,-39.05 -34.47,-99.11 -1.62,-60.06 -3.23,-770.6 -3.23,-770.6 0,0 -7.13,-65.4 23.05,-73.44 30.17,-8.03 60.84,-2.27 75.54,-18.85 14.7,-16.58 18.25,-34.48 -1.93,-44.63 -20.18,-10.15 -59.77,-12.63 -96.03,-12.36 -36.26,0.27 -84.82,2.85 -104.97,20.53 -20.15,17.68 -39.54,28.66 -49.11,53.5 -9.56,24.84 -263.77,730.89 -263.77,730.89l-225.77 -694.6c0,0 -31.54,-91.88 -71.95,-104.4 -40.42,-12.52 -175.79,-6.58 -190.46,0 -14.68,6.57 -30.01,24.17 -17.77,38.9 12.24,14.73 25.38,17.21 59.59,28.84 34.21,11.64 56.72,22.72 61.16,46.52 4.43,23.8 -45.78,727.85 -45.78,727.85 0,0 -5.96,137.43 -17.03,151.82 -11.07,14.38 -62.83,29.61 -78.34,30.17 -15.51,0.56 -34.06,7.47 -36.26,21.32 -2.21,13.85 -1.18,29.03 -1.18,29.03l304.84 -3c0,0 19.1,-15.28 13.28,-32.38 -5.81,-17.1 -68.64,-18.28 -94.94,-40.98 -26.3,-22.7 -36.31,-33.91 -36.31,-51.97 0,-18.06 30.41,-661.78 30.41,-661.78z"/>
  <path class="fil1 str0" d="M2953.87 11.44c306.11,0 554.26,240.52 554.26,537.23 0,296.71 -248.15,537.23 -554.26,537.23 -306.11,0 -554.26,-240.52 -554.26,-537.23 0,-296.71 248.15,-537.23 554.26,-537.23z"/>
  <path class="fil0" d="M5738.57 555.91c0,0 108.66,95.95 312.11,46.05 203.45,-49.9 227.27,-213.4 227.41,-235.35 0.13,-21.95 16.11,-127.35 -20.81,-186.03 -36.92,-58.68 -107,-124.54 -171.61,-144.42 -64.61,-19.89 -143.78,-27.95 -243.99,-27.95 -117.39,0 -234.76,0 -352.15,0 -100.21,0 -179.38,8.06 -243.99,27.95 -64.61,19.88 -134.69,85.74 -171.61,144.42 -36.92,58.68 -20.94,164.08 -20.81,186.03 0.13,21.95 23.96,185.46 227.41,235.35 203.45,49.9 312.11,-46.05 312.11,-46.05l0 161.65c0,0 1.82,224.52 0.71,259.95 -1.11,35.43 -26.57,41.51 -73.13,45.46 -46.56,3.95 -70.81,12.11 -72.29,35.87 -1.47,23.77 44.38,31.88 44.38,31.88l137.3 0 71.98 0 137.3 0c0,0 45.85,-8.11 44.38,-31.88 -1.47,-23.77 -25.72,-31.92 -72.28,-35.87 -46.56,-3.95 -72.02,-10.03 -73.13,-45.46 -1.11,-35.43 0.71,-259.95 0.71,-259.95l0 -161.65zm-145.92 -388.61l0 279.02c0,0 7.69,53.77 -31.51,71.8 -39.2,18.04 -148.47,48.24 -235.67,3.99 -87.2,-44.25 -137.62,-142.62 -120.72,-258.96 22.11,-152.22 135.51,-245.9 293.64,-223.07 72.04,10.4 91.97,16.5 94.26,127.21zm145.92 0l0 279.02c0,0 -7.69,53.77 31.51,71.8 39.2,18.04 148.47,48.24 235.67,3.99 87.2,-44.25 137.62,-142.62 120.72,-258.96 -22.11,-152.22 -135.51,-245.9 -293.64,-223.07 -72.04,10.4 -91.97,16.5 -94.26,127.21z"/>
  <polygon class="fil0" points="4805.88,1090.73 4796.21,1090.73 4796.21,6.61 4805.88,6.61 "/>
  <polygon class="fil0" points="5050.74,1090.73 5041.07,1090.73 5041.07,6.61 5050.74,6.61 "/>
  <polygon class="fil0" points="6286.87,1090.73 6277.21,1090.73 6277.21,6.61 6286.87,6.61 "/>
  <polygon class="fil0" points="6531.73,1090.73 6522.06,1090.73 6522.06,6.61 6531.73,6.61 "/>
  <polygon class="fil0" points="4796.21,16.28 4796.21,6.61 6531.73,6.61 6531.73,16.28 "/>
  <polygon class="fil0" points="4796.21,189.78 4796.21,180.12 6531.73,180.12 6531.73,189.78 "/>
  <polygon class="fil0" points="4796.21,913.52 4796.21,903.86 6531.73,903.86 6531.73,913.52 "/>
  <polygon class="fil0" points="4796.21,1090.73 4796.21,1081.06 6531.73,1081.06 6531.73,1090.73 "/>
  <path class="fil0" d="M4155.03 6.61l-397.47 1018.71c0,0 -24.25,18.26 -50.4,20.76 -26.15,2.49 -53.81,6.33 -69.22,12.44 -15.41,6.11 -28.38,10.15 -28.99,19.33 -0.62,9.19 -0.75,12.88 -0.75,12.88l382.77 0c0,0 4.74,-15.87 4.58,-19.34 -0.16,-3.47 -38.37,-16.9 -54.01,-21.46 -15.64,-4.57 -41.34,-6.45 -52.31,-7.53 -10.97,-1.07 -27.72,-2.73 -40.03,-22.1 -12.3,-19.36 -14.81,-19.36 -12.87,-38.74 1.94,-19.38 98,-266.18 98,-266.18l356 0 88.6 212.64c0,0 29.88,53.82 24.05,77.75 -5.82,23.93 -37.35,46.06 -72.38,44.68 -35.03,-1.38 -59.91,-4.24 -71,2.93 -11.09,7.18 -14.19,17.45 -14.72,25.74 -0.52,8.29 0,11.6 0,11.6l459.26 0c0,0 -0.01,-17.22 -3.54,-25.78 -3.52,-8.55 -71.59,-26.47 -93.62,-40.21 -22.03,-13.74 -48.22,-19.86 -84.77,-116.06 -36.54,-96.2 -356.71,-902.07 -356.71,-902.07l-10.49 0zm-198.15 655.63l306.07 0 -151.43 -372.11 -154.64 372.11z"/>
  <polygon class="fil0" points="3599.27,6.61 3608.94,6.61 3608.94,1090.73 3599.27,1090.73 "/>
  <polygon class="fil0" points="3599.27,16.28 3599.27,6.61 4710.77,6.61 4710.77,16.28 "/>
  <polygon class="fil0" points="4708.98,1090.73 4699.31,1090.73 4699.31,6.61 4708.98,6.61 "/>
  <polygon class="fil0" points="4708.98,1081.06 4708.98,1090.73 3599.27,1090.73 3599.27,1081.06 "/>
  <polygon class="fil0" points="4146.5,6.61 4156.17,6.61 4156.17,1090.73 4146.5,1090.73 "/>
  <polygon class="fil0" points="3604.84,715.39 3604.84,705.72 4704.55,705.72 4704.55,715.39 "/>
  <polygon class="fil0" points="3609.27,673.07 3609.27,663.4 4693.39,663.4 4693.39,673.07 "/>
  <path class="fil1 str0" d="M4154.13 6.61c303.76,0 550.01,242.69 550.01,542.06 0,299.37 -246.25,542.06 -550.01,542.06 -303.78,0 -550.03,-242.69 -550.03,-542.06 0,-299.37 246.25,-542.06 550.03,-542.06z"/>
  <path class="fil2" d="M1.77 1234.32l184.89 0 0 255.03 -34.33 0 0 -223.64 -116.23 0 0 223.64 -34.33 0 0 -255.03zm243.75 0l32.37 0 0 44.22c7.36,-10.38 13.73,-17.57 19.21,-21.58 23.79,-18.72 51.41,-28.03 82.8,-28.03 19.54,0 38.25,4.25 56.32,12.67 18.06,8.83 33.92,21.09 47.65,36.86 20.27,22.72 30.41,50.84 30.41,84.36 0,24.28 -6.13,46.51 -18.31,66.7 -12.26,20.19 -28.85,36.21 -49.94,47.98 -20.93,11.85 -43.73,17.74 -68.5,17.74 -32.04,0 -58.61,-9.65 -79.45,-29.02 -6.13,-5.23 -12.18,-13.41 -18.23,-24.44l0 136.83 -34.33 0 0 -344.29zm132.01 228.05c14.96,-0.65 28.69,-3.43 41.11,-8.5 12.51,-4.99 23.3,-12.02 32.62,-20.93 9.24,-8.99 16.35,-19.37 21.25,-31.23 4.99,-11.93 7.44,-24.85 7.44,-38.91 0,-18.06 -4.5,-34.9 -13.49,-50.52 -9.07,-15.61 -21.33,-27.96 -36.78,-36.86 -15.61,-9.07 -32.53,-13.65 -50.76,-13.65 -18.96,0 -36.21,4.41 -51.66,13.16 -15.53,8.75 -27.63,20.84 -36.54,36.13 -8.83,15.37 -13.24,32.45 -13.24,51.25 0,18.31 4.33,35.15 13.16,50.35 8.75,15.29 20.68,27.38 35.64,36.29 15.04,8.91 31.47,13.4 49.29,13.4l1.96 0zm307.01 -233.45c24.19,0 46.67,5.97 67.35,17.98 20.68,11.93 37.11,28.12 49.21,48.47 12.18,20.35 18.23,42.34 18.23,65.96 0,23.95 -5.97,46.26 -17.98,66.86 -11.93,20.6 -28.12,36.86 -48.39,48.96 -20.27,12.02 -42.26,18.07 -66.05,18.07 -23.62,0 -45.77,-5.97 -66.37,-17.98 -20.6,-11.61 -36.86,-27.63 -48.96,-47.98 -12.01,-20.35 -18.06,-42.34 -18.06,-65.96 0,-23.79 5.97,-46.02 17.98,-66.62 11.77,-20.76 27.79,-37.19 47.9,-49.45 20.11,-12.18 41.77,-18.31 65.15,-18.31zm2.37 32.86c-18.72,0.65 -35.56,5.47 -50.6,14.63 -15.2,8.91 -27.05,21.01 -35.64,36.37 -8.58,15.28 -12.83,32.12 -12.83,50.52 0,17.98 4.41,34.57 13.16,49.78 8.99,15.28 21.09,27.38 36.38,36.13 15.28,8.75 31.96,13.16 50.02,13.16 18.06,0 34.57,-4.49 49.62,-13.4 14.88,-9.07 26.57,-21.5 35.15,-37.11 8.58,-15.61 12.84,-32.94 12.84,-51.91 0,-17.25 -4.33,-33.43 -13.08,-48.63 -8.75,-15.12 -20.52,-27.22 -35.39,-36.13 -14.87,-8.91 -30.73,-13.4 -47.73,-13.4l-1.88 0zm215.79 183.75l147.13 -211.22 34.82 0 0 255.03 -34.82 0 0 -211.46 -147.13 211.46 -34.33 0 0 -255.03 34.33 0 0 211.22zm347.8 -92.53c14.06,3.35 24.85,8.42 32.29,15.29 13.4,12.34 20.11,28.36 20.11,48.14 0,9.07 -1.71,18.31 -5.23,27.63 -3.51,9.4 -8.34,17.33 -14.39,23.87 -4.58,4.91 -10.3,9.65 -17.17,14.14 -7.52,4.41 -14.63,7.52 -21.33,9.24 -6.7,1.63 -15.61,2.45 -26.81,2.45 -16.92,0 -31.8,-3.03 -44.63,-9.07 -12.84,-6.05 -22.89,-14.88 -30.08,-26.32 -7.19,-11.52 -11.03,-25.01 -11.52,-40.46l34.33 0c1.06,8.75 2.53,15.29 4.25,19.45 1.8,4.25 4.82,8.42 9.15,12.59 9.89,9.56 22.4,14.39 37.6,14.39 14.96,0 27.22,-4.41 36.78,-13.16 9.48,-8.83 14.22,-20.03 14.22,-33.76 0,-8.83 -2.37,-16.84 -7.19,-24.2 -4.82,-7.36 -11.28,-13.08 -19.45,-17.25 -8.09,-4.17 -17.25,-6.21 -27.3,-6.21 -6.21,0 -11.45,0.32 -15.61,0.98l0 -30.49c6.54,0.66 10.63,0.98 12.26,0.98 12.26,0 22.72,-3.84 31.23,-11.61 8.58,-7.76 12.83,-17.25 12.83,-28.61 0,-12.26 -3.84,-22.15 -11.52,-29.59 -7.6,-7.44 -17.82,-11.12 -30.65,-11.12 -11.44,0 -20.68,3.35 -27.71,10.05 -7.03,6.54 -11.2,15.94 -12.51,28.28l-34.17 0c1.39,-21.74 8.91,-38.58 22.48,-50.52 13.57,-12.18 31.88,-18.23 54.85,-18.23 13.73,0 26.24,2.94 37.52,8.83 11.28,5.97 20.11,14.14 26.48,24.6 6.38,10.46 9.56,22.07 9.56,34.82 0,11.44 -2.21,21.5 -6.7,29.92 -2.7,4.99 -6.38,9.24 -11.04,12.84 -4.66,3.6 -11.61,7.6 -20.93,12.1zm101.6 136.34l0 -254.54 78.14 0c14.06,0 25.5,0.98 34.33,2.86 8.75,1.96 16.59,5.23 23.46,9.81 9.4,5.97 16.76,13.82 21.99,23.54 5.23,9.73 7.85,20.19 7.85,31.39 0,11.69 -2.86,22.15 -8.58,31.39 -5.72,9.15 -13.4,15.69 -23.13,19.7 13.32,3.03 24.28,10.46 32.94,22.23 8.66,11.77 13,25.5 13,41.12 0,12.02 -2.7,23.13 -8.17,33.51 -5.72,10.38 -13.4,18.72 -23.21,25.09 -8.26,5.47 -17.25,9.07 -26.98,11.03 -9.64,1.88 -23.95,2.86 -43.16,2.86l-78.47 0zm33.35 -30.9l45.45 0c20.52,0 34.74,-2.12 42.75,-6.46 14.14,-7.68 21.17,-19.7 21.17,-36.13 0,-9.24 -2.37,-17.25 -7.19,-24.11 -4.82,-6.87 -11.52,-11.69 -20.11,-14.47 -8.58,-2.78 -21.91,-4.17 -39.97,-4.17l-42.1 0 0 85.34zm0 -115.74l42.67 0c17.98,0 30.57,-2.04 37.84,-6.21 11.36,-6.29 17.08,-17.08 17.08,-32.45 0,-14.39 -5.72,-25.09 -17.08,-32.12 -3.1,-1.88 -6.7,-3.35 -10.87,-4.33 -5.97,-1.23 -14.47,-1.88 -25.5,-1.88l-44.14 0 0 77zm317.07 -113.78c24.19,0 46.67,5.97 67.35,17.98 20.68,11.93 37.11,28.12 49.21,48.47 12.18,20.35 18.23,42.34 18.23,65.96 0,23.95 -5.97,46.26 -17.98,66.86 -11.93,20.6 -28.12,36.86 -48.39,48.96 -20.27,12.02 -42.26,18.07 -66.05,18.07 -23.62,0 -45.77,-5.97 -66.37,-17.98 -20.6,-11.61 -36.86,-27.63 -48.96,-47.98 -12.01,-20.35 -18.06,-42.34 -18.06,-65.96 0,-23.79 5.97,-46.02 17.98,-66.62 11.77,-20.76 27.79,-37.19 47.9,-49.45 20.11,-12.18 41.77,-18.31 65.15,-18.31zm2.37 32.86c-18.72,0.65 -35.56,5.47 -50.6,14.63 -15.2,8.91 -27.05,21.01 -35.64,36.37 -8.58,15.28 -12.83,32.12 -12.83,50.52 0,17.98 4.41,34.57 13.16,49.78 8.99,15.28 21.09,27.38 36.38,36.13 15.28,8.75 31.96,13.16 50.02,13.16 18.06,0 34.57,-4.49 49.62,-13.4 14.88,-9.07 26.57,-21.5 35.15,-37.11 8.58,-15.61 12.84,-32.94 12.84,-51.91 0,-17.25 -4.33,-33.43 -13.08,-48.63 -8.75,-15.12 -20.52,-27.22 -35.39,-36.13 -14.87,-8.91 -30.73,-13.4 -47.73,-13.4l-1.88 0zm382.05 227.56l-192.74 0 0 58.93 -30.9 0 0 -89.83 24.68 0 88.12 -223.64 28.44 0 88.36 223.64 25.42 0 0 89.83 -31.39 0 0 -58.93zm-30.41 -30.9l-65.39 -172.14 -0.9 -8.42 -0.98 8.42 -65.15 172.14 132.42 0zm312.32 -43.73l38.34 0c-6.29,11.85 -11.52,20.76 -15.69,26.73 -4.25,5.97 -9.48,11.85 -15.69,17.57 -25.66,24.11 -56.73,36.21 -93.1,36.21 -25.59,0 -48.96,-5.8 -70.13,-17.49 -21.25,-11.77 -38.01,-27.87 -50.35,-48.15 -12.26,-20.43 -18.39,-42.83 -18.39,-67.27 0,-24.28 6.13,-46.59 18.47,-67.03 12.26,-20.43 29.02,-36.62 50.27,-48.39 21.17,-12.02 44.22,-17.98 69.15,-17.98 38.91,0 72.01,13.89 99.31,41.69 9.65,9.89 18.47,23.62 26.57,41.2l-38.75 0c-7.52,-10.87 -15.04,-19.46 -22.56,-25.83 -18.96,-16.1 -40.71,-24.19 -65.15,-24.19 -18.8,0 -36.13,4.49 -51.99,13.4 -15.78,8.75 -28.28,20.85 -37.35,36.13 -9.07,15.37 -13.65,32.04 -13.65,50.02 0,18.88 4.5,35.97 13.41,51.5 8.99,15.28 21.33,27.46 37.11,36.37 15.69,8.75 33.02,13.16 51.98,13.16 17.08,0 32.94,-3.6 47.49,-10.79 8.09,-4.17 14.96,-8.67 20.6,-13.65 5.56,-5.07 12.26,-12.83 20.11,-23.21zm123.75 74.63l0 -223.64 -60.24 0 0 -30.9 154.32 0 0 30.9 -59.75 0 0 223.64 -34.33 0zm129.64 0l0 -254.54 78.14 0c14.06,0 25.5,0.98 34.33,2.86 8.75,1.96 16.59,5.23 23.46,9.81 9.4,5.97 16.76,13.82 21.99,23.54 5.23,9.73 7.85,20.19 7.85,31.39 0,11.69 -2.86,22.15 -8.58,31.39 -5.72,9.15 -13.4,15.69 -23.13,19.7 13.32,3.03 24.28,10.46 32.94,22.23 8.66,11.77 13,25.5 13,41.12 0,12.02 -2.7,23.13 -8.17,33.51 -5.72,10.38 -13.4,18.72 -23.21,25.09 -8.26,5.47 -17.25,9.07 -26.98,11.03 -9.64,1.88 -23.95,2.86 -43.16,2.86l-78.47 0zm33.35 -30.9l45.45 0c20.52,0 34.74,-2.12 42.75,-6.46 14.14,-7.68 21.17,-19.7 21.17,-36.13 0,-9.24 -2.37,-17.25 -7.19,-24.11 -4.82,-6.87 -11.52,-11.69 -20.11,-14.47 -8.58,-2.78 -21.91,-4.17 -39.97,-4.17l-42.1 0 0 85.34zm0 -115.74l42.67 0c17.98,0 30.57,-2.04 37.84,-6.21 11.36,-6.29 17.08,-17.08 17.08,-32.45 0,-14.39 -5.72,-25.09 -17.08,-32.12 -3.1,-1.88 -6.7,-3.35 -10.87,-4.33 -5.97,-1.23 -14.47,-1.88 -25.5,-1.88l-44.14 0 0 77zm450.39 29.43l-230.59 0c1.71,13.73 4.41,24.52 8.09,32.29 4.99,11.2 12.1,21.25 21.58,30.16 9.4,8.83 20.11,15.61 32.29,20.52 12.1,4.82 24.68,7.27 37.76,7.27 27.79,0 51.58,-9.48 71.52,-28.44 7.52,-7.36 13.89,-16.43 19.13,-27.3l36.38 0c-6.38,14.63 -12.1,25.66 -17.25,33.02 -5.07,7.36 -12.26,14.87 -21.5,22.72 -11.93,10.38 -25.83,18.47 -41.61,24.2 -15.78,5.8 -31.63,8.67 -47.65,8.67 -24.03,0 -46.18,-5.89 -66.46,-17.57 -20.27,-11.77 -36.37,-27.87 -48.23,-48.31 -11.85,-20.44 -17.82,-42.75 -17.82,-67.03 0,-24.11 5.89,-46.43 17.74,-66.86 11.77,-20.43 27.87,-36.62 48.14,-48.55 20.35,-12.02 42.42,-17.98 66.21,-17.98 20.03,0 39.15,4.33 57.14,12.91 17.98,8.66 33.43,20.84 46.18,36.62 12.1,15.04 20.52,32.21 25.09,51.5 1.63,7.19 2.86,21.25 3.84,42.18zm-229.44 -31.39l194.29 0c-2.53,-14.55 -8.58,-27.87 -17.98,-39.97 -9.24,-12.1 -20.84,-21.66 -34.82,-28.61 -13.89,-6.95 -28.53,-10.38 -43.89,-10.38 -15.61,0 -30.16,3.27 -43.65,9.73 -13.49,6.46 -24.93,15.69 -34.33,27.87 -9.4,11.93 -15.94,25.75 -19.62,41.36zm311.92 2.45l147.13 0 0 -108.88 34.82 0 0 255.03 -34.82 0 0 -115.25 -147.13 0 0 115.25 -34.33 0 0 -255.03 34.33 0 0 108.88zm274.65 0l147.13 0 0 -108.88 34.82 0 0 255.03 -34.82 0 0 -115.25 -147.13 0 0 115.25 -34.33 0 0 -255.03 34.33 0 0 108.88zm499.76 -108.88l0 254.95 -33.35 0 0 -47.98c-6.21,10.71 -13.24,19.7 -21.09,27.06 -20.93,17.9 -46.67,26.89 -77.32,26.89 -20.44,0 -41.2,-5.07 -62.29,-15.2 -21.09,-10.13 -37.76,-23.05 -50.02,-38.66 -7.68,-10.05 -13.81,-22.23 -18.39,-36.54 -4.5,-14.3 -6.78,-28.61 -6.78,-42.99 0,-23.95 6.13,-46.1 18.31,-66.54 12.26,-20.43 28.85,-36.62 49.94,-48.39 20.93,-12.02 43.65,-17.98 68.25,-17.98 15.37,0 29.83,2.37 43.49,7.19 13.65,4.82 25.42,11.77 35.31,20.84 7.68,6.7 14.55,15.45 20.6,26.16l0 -48.8 33.35 0zm-130.87 27.47c-19.21,0 -36.78,4.49 -52.72,13.49 -16.02,9.07 -28.53,21.33 -37.68,36.78 -9.07,15.45 -13.65,32.37 -13.65,50.76 0,17.82 4.66,34.41 13.9,49.62 9.24,15.29 21.74,27.38 37.52,36.46 15.78,8.99 32.78,13.49 51.17,13.49 17.57,0 34,-4.49 49.29,-13.49 15.2,-9.07 27.3,-21.17 36.29,-36.46 8.91,-15.2 13.41,-31.8 13.41,-49.62 0,-17.9 -4.41,-34.66 -13.16,-50.27 -8.83,-15.69 -20.68,-28.04 -35.72,-37.11 -15.04,-9.07 -31.22,-13.65 -48.63,-13.65zm167.73 227.56l98.99 -108.47c-15.45,-0.49 -28.94,-3.6 -40.38,-9.48 -11.52,-5.8 -20.19,-14.06 -26.16,-24.68 -5.97,-10.54 -8.99,-23.05 -8.99,-37.44 0,-21.42 6.86,-38.75 20.6,-51.99 8.58,-8.26 18.96,-14.14 31.14,-17.49 12.1,-3.35 28.53,-4.99 49.29,-4.99l72.09 0 0 254.54 -34.82 0 0 -227.07 -29.51 0c-19.86,0 -35.39,1.31 -46.59,3.84 -8.83,2.37 -15.86,7.68 -21.09,15.78 -5.15,8.17 -7.76,17.74 -7.76,28.77 0,18.39 7.68,32.12 23.05,41.19 7.03,4.33 14.63,7.28 22.8,8.83 8.17,1.63 20.11,2.45 35.8,2.45l16.59 0 -109.2 126.21 -45.86 0zm414.58 0l-34.33 0 0 -255.03 34.33 0 0 255.03zm4.58 -131.93l112.15 -123.1 40.71 0 -112.15 122.12 119.59 132.91 -42.34 0 -117.95 -131.93zm313.88 -128.49c24.19,0 46.67,5.97 67.35,17.98 20.68,11.93 37.11,28.12 49.21,48.47 12.18,20.35 18.23,42.34 18.23,65.96 0,23.95 -5.97,46.26 -17.98,66.86 -11.93,20.6 -28.12,36.86 -48.39,48.96 -20.27,12.02 -42.26,18.07 -66.05,18.07 -23.62,0 -45.77,-5.97 -66.37,-17.98 -20.6,-11.61 -36.86,-27.63 -48.96,-47.98 -12.01,-20.35 -18.06,-42.34 -18.06,-65.96 0,-23.79 5.97,-46.02 17.98,-66.62 11.77,-20.76 27.79,-37.19 47.9,-49.45 20.11,-12.18 41.77,-18.31 65.15,-18.31zm2.37 32.86c-18.72,0.65 -35.56,5.47 -50.6,14.63 -15.2,8.91 -27.05,21.01 -35.64,36.37 -8.58,15.28 -12.83,32.12 -12.83,50.52 0,17.98 4.41,34.57 13.16,49.78 8.99,15.28 21.09,27.38 36.38,36.13 15.28,8.75 31.96,13.16 50.02,13.16 18.06,0 34.57,-4.49 49.62,-13.4 14.88,-9.07 26.57,-21.5 35.15,-37.11 8.58,-15.61 12.84,-32.94 12.84,-51.91 0,-17.25 -4.33,-33.43 -13.08,-48.63 -8.75,-15.12 -20.52,-27.22 -35.39,-36.13 -14.87,-8.91 -30.73,-13.4 -47.73,-13.4l-1.88 0zm178.03 227.56l0 -254.54 53.46 0 84.27 198.06 3.1 12.18 3.35 -12.67 80.84 -197.56 52.07 0 0 254.54 -34.33 0 0 -221.27 -93.35 221.27 -21.99 0 -93.1 -221.27 0 221.27 -34.33 0zm332.44 -255.03l184.89 0 0 255.03 -34.33 0 0 -223.64 -116.23 0 0 223.64 -34.33 0 0 -255.03zm503.19 0l0 254.95 -33.35 0 0 -47.98c-6.21,10.71 -13.24,19.7 -21.09,27.06 -20.93,17.9 -46.67,26.89 -77.32,26.89 -20.44,0 -41.2,-5.07 -62.29,-15.2 -21.09,-10.13 -37.76,-23.05 -50.02,-38.66 -7.68,-10.05 -13.81,-22.23 -18.39,-36.54 -4.5,-14.3 -6.78,-28.61 -6.78,-42.99 0,-23.95 6.13,-46.1 18.31,-66.54 12.26,-20.43 28.85,-36.62 49.94,-48.39 20.93,-12.02 43.65,-17.98 68.25,-17.98 15.37,0 29.83,2.37 43.49,7.19 13.65,4.82 25.42,11.77 35.31,20.84 7.68,6.7 14.55,15.45 20.6,26.16l0 -48.8 33.35 0zm-130.87 27.47c-19.21,0 -36.78,4.49 -52.72,13.49 -16.02,9.07 -28.53,21.33 -37.68,36.78 -9.07,15.45 -13.65,32.37 -13.65,50.76 0,17.82 4.66,34.41 13.9,49.62 9.24,15.29 21.74,27.38 37.52,36.46 15.78,8.99 32.78,13.49 51.17,13.49 17.57,0 34,-4.49 49.29,-13.49 15.2,-9.07 27.3,-21.17 36.29,-36.46 8.91,-15.2 13.41,-31.8 13.41,-49.62 0,-17.9 -4.41,-34.66 -13.16,-50.27 -8.83,-15.69 -20.68,-28.04 -35.72,-37.11 -15.04,-9.07 -31.22,-13.65 -48.63,-13.65zm224.05 81.41l147.13 0 0 -108.88 34.82 0 0 255.03 -34.82 0 0 -115.25 -147.13 0 0 115.25 -34.33 0 0 -255.03 34.33 0 0 108.88zm274.65 102.34l147.13 -211.22 34.82 0 0 255.03 -34.82 0 0 -211.46 -147.13 211.46 -34.33 0 0 -255.03 34.33 0 0 211.22zm218.33 43.81l98.99 -108.47c-15.45,-0.49 -28.94,-3.6 -40.38,-9.48 -11.52,-5.8 -20.19,-14.06 -26.16,-24.68 -5.97,-10.54 -8.99,-23.05 -8.99,-37.44 0,-21.42 6.86,-38.75 20.6,-51.99 8.58,-8.26 18.96,-14.14 31.14,-17.49 12.1,-3.35 28.53,-4.99 49.29,-4.99l72.09 0 0 254.54 -34.82 0 0 -227.07 -29.51 0c-19.86,0 -35.39,1.31 -46.59,3.84 -8.83,2.37 -15.86,7.68 -21.09,15.78 -5.15,8.17 -7.76,17.74 -7.76,28.77 0,18.39 7.68,32.12 23.05,41.19 7.03,4.33 14.63,7.28 22.8,8.83 8.17,1.63 20.11,2.45 35.8,2.45l16.59 0 -109.2 126.21 -45.86 0z"/>
 </g>
</svg>
